<?xml version="1.0" encoding="UTF-8"?>
<svg width="24px" height="24px" viewBox="0 0 24 24" version="1.1" xmlns="http://www.w3.org/2000/svg" xmlns:xlink="http://www.w3.org/1999/xlink">
    <!-- Generator: sketchtool 57.1 (101010) - https://sketch.com -->
    <title>33BFB859-EAAF-42DF-AA97-C16D516B4F17</title>
    <desc>Created with sketchtool.</desc>
    <g id="Go!-Manage" stroke="none" stroke-width="1" fill="none" fill-rule="evenodd">
        <g id="service-partner-management" transform="translate(-487.000000, -381.000000)" fill="#5DD0B6" fill-rule="nonzero">
            <g id="Group-2-Copy" transform="translate(112.000000, 128.000000)">
                <g id="Group-2" transform="translate(40.000000, 247.000000)">
                    <g id="icon_call" transform="translate(331.000000, 2.000000)">
                        <path d="M27.3998625,22.9168825 L23.7032436,19.219851 C22.9669456,18.48651 21.7476218,18.5087908 20.9856734,19.2710143 L19.1233009,21.1329742 C19.005639,21.0681261 18.883851,21.0003897 18.7558052,20.9285272 C17.5797364,20.2768825 15.970086,19.3837249 14.2762636,17.6886648 C12.5774212,15.9900287 11.6834384,14.3779026 11.0297994,13.2010774 C10.9608252,13.0764011 10.8947393,12.9561948 10.8294785,12.8420401 L12.079404,11.5939713 L12.693914,10.9787049 C13.4570315,10.2153811 13.4780745,8.99640115 12.7434957,8.26092837 L9.04687679,4.56348424 C8.31229799,3.82904298 7.09242407,3.85132378 6.32930659,4.61464756 L5.28747278,5.66246418 L5.31594269,5.69072779 C4.96660172,6.13648138 4.67468195,6.65059026 4.45744413,7.20499713 C4.25719198,7.73272206 4.13251576,8.23630946 4.07550716,8.74092837 C3.58739255,12.7875072 5.4365616,16.4857765 10.4549685,21.5042521 C17.3919312,28.4407335 22.982212,27.9167221 23.2233811,27.8911404 C23.7486304,27.8283553 24.2520115,27.7028539 24.7635759,27.5041834 C25.3131691,27.28949 25.8269341,26.9979828 26.2724126,26.6493983 L26.2951748,26.669616 L27.3506246,25.6361032 C28.1121605,24.8729169 28.1340974,23.6535244 27.3998625,22.9168825 Z" id="Path"></path>
                    </g>
                </g>
            </g>
        </g>
    </g>
</svg>