<?xml version="1.0" encoding="UTF-8"?>
<svg width="20px" height="28px" viewBox="0 0 20 28" version="1.1" xmlns="http://www.w3.org/2000/svg" xmlns:xlink="http://www.w3.org/1999/xlink">
    <!-- Generator: sketchtool 57.1 (101010) - https://sketch.com -->
    <title>21B9CD9E-6688-46A0-90A3-FEB2E2FBEE84</title>
    <desc>Created with sketchtool.</desc>
    <g id="Go!-Manage" stroke="none" stroke-width="1" fill="none" fill-rule="evenodd">
        <g id="service-partner-management" transform="translate(-152.000000, -379.000000)">
            <g id="Group-2-Copy" transform="translate(112.000000, 128.000000)">
                <g id="Group-2" transform="translate(40.000000, 247.000000)">
                    <g id="map_pin-green" transform="translate(0.000000, 4.000000)">
                        <ellipse id="Oval" fill="#FFFFFF" cx="10" cy="10.5" rx="5" ry="5.25"></ellipse>
                        <path d="M10,0 C15.5228475,0 20,4.65046163 20,10.3870968 C20,14.2115202 16.6666667,20.0824879 10,28 C3.33333333,20.0824879 0,14.2115202 0,10.3870968 C0,4.65046163 4.4771525,0 10,0 Z M10,6.125 C7.69881354,6.125 5.83333333,8.08375422 5.83333333,10.5 C5.83333333,12.9162458 7.69881354,14.875 10,14.875 C12.3011865,14.875 14.1666667,12.9162458 14.1666667,10.5 C14.1666667,8.08375422 12.3011865,6.125 10,6.125 Z" id="Combined-Shape" fill="#5DD0B6"></path>
                    </g>
                </g>
            </g>
        </g>
    </g>
</svg>